<svg width="32" height="32" viewBox="0 0 32 32" fill="none" xmlns="http://www.w3.org/2000/svg">
<path fill-rule="evenodd" clip-rule="evenodd" d="M15.9997 13.6667C16.2649 13.6667 16.5192 13.772 16.7068 13.9596C16.8943 14.1471 16.9997 14.4014 16.9997 14.6667V16.3333H18.6663C18.9316 16.3333 19.1859 16.4387 19.3734 16.6262C19.561 16.8138 19.6663 17.0681 19.6663 17.3333C19.6663 17.5985 19.561 17.8529 19.3734 18.0404C19.1859 18.228 18.9316 18.3333 18.6663 18.3333H16.9997V20C16.9997 20.2652 16.8943 20.5196 16.7068 20.7071C16.5192 20.8946 16.2649 21 15.9997 21C15.7345 21 15.4801 20.8946 15.2926 20.7071C15.105 20.5196 14.9997 20.2652 14.9997 20V18.3333H13.333C13.0678 18.3333 12.8134 18.228 12.6259 18.0404C12.4384 17.8529 12.333 17.5985 12.333 17.3333C12.333 17.0681 12.4384 16.8138 12.6259 16.6262C12.8134 16.4387 13.0678 16.3333 13.333 16.3333H14.9997V14.6667C14.9997 14.4014 15.105 14.1471 15.2926 13.9596C15.4801 13.772 15.7345 13.6667 15.9997 13.6667Z" fill="white"/>
<path fill-rule="evenodd" clip-rule="evenodd" d="M13.0372 28H18.9625C23.1238 28 25.2052 28 26.6998 27.02C27.3449 26.5975 27.9004 26.052 28.3345 25.4147C29.3332 23.948 29.3332 21.904 29.3332 17.8187C29.3332 13.7333 29.3332 11.6893 28.3345 10.2227C27.9004 9.58532 27.3449 9.03981 26.6998 8.61733C25.7398 7.98667 24.5372 7.76133 22.6958 7.68133C21.8172 7.68133 21.0612 7.028 20.8892 6.18133C20.7577 5.56116 20.4162 5.00538 19.9223 4.60794C19.4284 4.21049 18.8124 3.99575 18.1785 4H13.8212C12.5038 4 11.3692 4.91333 11.1105 6.18133C10.9385 7.028 10.1825 7.68133 9.30384 7.68133C7.46384 7.76133 6.26117 7.988 5.29984 8.61733C4.65522 9.03995 4.1002 9.58545 3.6665 10.2227C2.6665 11.6893 2.6665 13.732 2.6665 17.8187C2.6665 21.9053 2.6665 23.9467 3.66517 25.4147C4.09717 26.0493 4.65184 26.5947 5.29984 27.02C6.7945 28 8.87584 28 13.0372 28ZM21.3332 17.3333C21.3332 18.7478 20.7713 20.1044 19.7711 21.1046C18.7709 22.1048 17.4143 22.6667 15.9998 22.6667C14.5853 22.6667 13.2288 22.1048 12.2286 21.1046C11.2284 20.1044 10.6665 18.7478 10.6665 17.3333C10.6665 15.9188 11.2284 14.5623 12.2286 13.5621C13.2288 12.5619 14.5853 12 15.9998 12C17.4143 12 18.7709 12.5619 19.7711 13.5621C20.7713 14.5623 21.3332 15.9188 21.3332 17.3333ZM23.9998 12.3333C23.7346 12.3333 23.4803 12.4387 23.2927 12.6262C23.1052 12.8138 22.9998 13.0681 22.9998 13.3333C22.9998 13.5986 23.1052 13.8529 23.2927 14.0404C23.4803 14.228 23.7346 14.3333 23.9998 14.3333H25.3332C25.5984 14.3333 25.8527 14.228 26.0403 14.0404C26.2278 13.8529 26.3332 13.5986 26.3332 13.3333C26.3332 13.0681 26.2278 12.8138 26.0403 12.6262C25.8527 12.4387 25.5984 12.3333 25.3332 12.3333H23.9998Z" fill="white"/>
</svg>
