<svg width="32" height="32" viewBox="0 0 32 32" fill="none" xmlns="http://www.w3.org/2000/svg">
<path d="M19.0001 3.01334L18.8934 2.96001L18.8801 2.98667C17.9467 2.78667 16.9867 2.66667 16.0001 2.66667C8.64008 2.66667 2.66675 8.64 2.66675 16C2.66675 23.36 8.64008 29.3333 16.0001 29.3333C23.3601 29.3333 29.3334 23.36 29.3334 16C29.3334 9.66667 24.9201 4.37334 19.0001 3.01334ZM25.8801 12H15.2267L18.8401 5.73334C22.0401 6.61334 24.6401 8.96 25.8801 12ZM17.4667 5.44L13.6934 12L12.1601 14.6667L8.53341 8.4C10.5213 6.43429 13.2044 5.33227 16.0001 5.33334C16.4934 5.33334 16.9867 5.37334 17.4667 5.44ZM7.60008 9.45334L11.3867 16L12.9201 18.6667H5.68008C5.46675 17.8133 5.33341 16.92 5.33341 16C5.33341 13.5333 6.18675 11.2667 7.60008 9.45334ZM6.12008 20H16.7601L13.1467 26.2667C11.5754 25.8266 10.1254 25.0333 8.90761 23.9472C7.68978 22.8611 6.73633 21.511 6.12008 20ZM14.5334 26.5467L19.8534 17.3333L23.4801 23.6C21.4857 25.5641 18.7992 26.6655 16.0001 26.6667C15.4934 26.6667 15.0134 26.6133 14.5334 26.5467ZM24.4001 22.5467L19.0667 13.3333H26.3067C26.5334 14.1867 26.6667 15.08 26.6667 16C26.6667 18.4667 25.8134 20.7333 24.4001 22.5467Z" fill="white"/>
</svg>
