<svg width="32" height="32" viewBox="0 0 32 32" fill="none" xmlns="http://www.w3.org/2000/svg">
<path d="M16 17.3333C18.2091 17.3333 20 15.5425 20 13.3333C20 11.1242 18.2091 9.33333 16 9.33333C13.7909 9.33333 12 11.1242 12 13.3333C12 15.5425 13.7909 17.3333 16 17.3333Z" fill="white"/>
<path d="M24.1668 2.66667H7.8335C7.17067 2.66737 6.5352 2.93099 6.06651 3.39968C5.59782 3.86837 5.3342 4.50384 5.3335 5.16667V21.5C5.3335 22.8787 6.45483 24 7.8335 24H14.6668V26.6667H9.3335V29.3333H22.6668V26.6667H17.3335V24H24.1668C24.8297 23.9993 25.4651 23.7357 25.9338 23.267C26.4025 22.7983 26.6661 22.1628 26.6668 21.5V5.16667C26.6661 4.50384 26.4025 3.86837 25.9338 3.39968C25.4651 2.93099 24.8297 2.66737 24.1668 2.66667ZM16.0002 20C12.3242 20 9.3335 17.0093 9.3335 13.3333C9.3335 9.65733 12.3242 6.66667 16.0002 6.66667C19.6762 6.66667 22.6668 9.65733 22.6668 13.3333C22.6668 17.0093 19.6762 20 16.0002 20Z" fill="white"/>
</svg>
