<svg width="32" height="32" viewBox="0 0 32 32" fill="none" xmlns="http://www.w3.org/2000/svg">
<path d="M6.83048 1.90013C5.90423 1.89969 4.9296 2.03413 3.9041 2.33338L3.89504 2.33651C3.88462 2.33984 3.87428 2.34344 3.86404 2.34732C3.85585 2.35032 3.84772 2.35348 3.83967 2.35682C3.82976 2.36111 3.81996 2.36565 3.81029 2.37044C3.80221 2.37429 3.7942 2.37831 3.78629 2.38251C3.77649 2.38793 3.76685 2.39362 3.75735 2.39957C3.75014 2.40401 3.74301 2.40859 3.73598 2.41332C3.72674 2.41974 3.71767 2.42641 3.70879 2.43332C3.70193 2.43851 3.69518 2.44385 3.68854 2.44932C3.68007 2.45654 3.6718 2.46398 3.66373 2.47163C3.65742 2.47754 3.65123 2.48359 3.64517 2.48976C3.63723 2.49798 3.62952 2.50642 3.62204 2.51507C3.61678 2.52107 3.61163 2.52718 3.6066 2.53338C3.5992 2.54282 3.59207 2.55247 3.58523 2.56232C3.58063 2.5688 3.57615 2.57536 3.57179 2.58201C3.56565 2.59168 3.55977 2.60151 3.55417 2.61151C3.55 2.6188 3.54598 2.62618 3.5421 2.63363C3.53697 2.64385 3.53211 2.65421 3.52754 2.66469C3.52414 2.67227 3.52089 2.67992 3.51779 2.68763C3.51379 2.6982 3.51008 2.70887 3.50667 2.71963C3.50396 2.72762 3.50142 2.73567 3.49904 2.74376C3.49499 2.75796 3.49145 2.7723 3.48842 2.78676L2.08892 9.78438C2.06213 9.91853 2.08248 10.0578 2.14654 10.1787C2.2106 10.2996 2.31443 10.3946 2.44048 10.4478L7.56692 12.6089L9.54317 22.7422L2.25979 24.3243C2.12844 24.3525 2.01056 24.4245 1.92541 24.5285C1.84027 24.6324 1.7929 24.7622 1.79104 24.8965L1.72467 29.6759C1.72336 29.7699 1.74442 29.863 1.78611 29.9473C1.8278 30.0316 1.88893 30.1048 1.96446 30.1609C2.03999 30.2169 2.12776 30.2543 2.22054 30.2698C2.31332 30.2853 2.40845 30.2785 2.4981 30.25L11.6524 27.3242L13.16 27.0319C13.1711 27.0321 13.1821 27.0328 13.1932 27.0328C13.8154 27.0328 14.4014 26.7364 14.8107 26.2533C15.2196 25.7706 15.4335 25.1414 15.4329 24.4933V24.4917C15.4333 24.0808 15.3472 23.6769 15.1801 23.3133L13.6005 15.1526L21.4614 18.4664L21.4711 18.47C21.4823 18.4744 21.4937 18.4785 21.5052 18.4823C21.5124 18.4847 21.5197 18.487 21.527 18.4892C21.5383 18.4924 21.5496 18.4953 21.561 18.4978C21.5696 18.4998 21.5783 18.5016 21.587 18.5032C21.597 18.505 21.6071 18.5065 21.6172 18.5078C21.6272 18.509 21.6372 18.5101 21.6473 18.5109C21.6562 18.5115 21.6652 18.5119 21.6742 18.5121C21.6854 18.5125 21.6967 18.5126 21.7079 18.5124C21.7155 18.5123 21.723 18.5121 21.7306 18.5118L26.9435 18.1818C27.0493 18.1748 27.1513 18.1395 27.2389 18.0798C27.3265 18.02 27.3965 17.9379 27.4416 17.8419L30.5992 11.1573L30.5997 11.1564V11.1563L30.601 11.1533C30.6376 11.0775 30.6578 10.9948 30.66 10.9106C30.6623 10.8264 30.6466 10.7427 30.614 10.6651C30.5815 10.5874 30.5327 10.5176 30.4711 10.4602C30.4095 10.4028 30.3364 10.3592 30.2566 10.3323C29.7861 10.0738 29.2823 9.88142 28.7594 9.76051L9.51723 2.29301C9.50076 2.28672 9.48404 2.28113 9.4671 2.27626C8.63479 2.03607 7.75679 1.90063 6.83048 1.90013ZM5.18379 2.75782C5.26283 2.75733 5.34118 2.77263 5.41423 2.80282L23.5861 10.0859C23.716 10.1379 23.8233 10.2341 23.8893 10.3574C23.9552 10.4808 23.9756 10.6234 23.9467 10.7603C23.9294 10.7894 23.9146 10.8199 23.9025 10.8516L23.8503 10.9809C23.7732 11.0899 23.6616 11.1697 23.5336 11.2075C23.4056 11.2453 23.2686 11.239 23.1447 11.1894L4.97285 3.90438C4.84448 3.85409 4.73761 3.76069 4.67058 3.64021C4.60355 3.51973 4.58054 3.37968 4.60549 3.24408C4.63045 3.10849 4.70181 2.9858 4.80734 2.89708C4.91287 2.80835 5.04593 2.75912 5.18379 2.75782ZM27.5155 10.7808C27.7905 10.7831 28.0624 10.8125 28.3323 10.8685L29.2535 11.226L27.7742 14.3581C27.8312 14.1045 27.8603 13.853 27.8576 13.6172C27.8514 13.0714 27.6739 12.6203 27.3673 12.3945C27.0607 12.1687 26.6368 12.177 26.2189 12.4101C26.1157 12.4676 26.0123 12.5391 25.9122 12.6211C25.9506 12.5697 25.9866 12.5136 26.0177 12.4531C26.1062 12.2808 26.1582 12.0811 26.1564 11.9044C26.1544 11.7272 26.0974 11.5767 25.9962 11.5C25.9471 11.4621 25.8864 11.4421 25.8244 11.4434C25.7612 11.4444 25.693 11.4641 25.6271 11.5019C25.4954 11.5777 25.3721 11.7219 25.2834 11.8946C25.1948 12.0673 25.1427 12.2663 25.1448 12.4434C25.1467 12.6205 25.2039 12.7711 25.3049 12.8478C25.406 12.9244 25.5423 12.9195 25.674 12.8438C25.4605 13.0664 25.2649 13.3376 25.1058 13.6388C24.8178 14.1836 24.6542 14.8137 24.6605 15.3594C24.6668 15.9052 24.848 16.3582 25.1546 16.5841C25.4611 16.8099 25.8811 16.7997 26.299 16.5666C26.5601 16.4208 26.8171 16.1904 27.0434 15.9052L26.5177 17.0177L22.5959 17.2677L24.9242 11.4933C25.8389 11.0092 26.6912 10.7738 27.5156 10.7808L27.5155 10.7808ZM8.88567 13.1648L9.88654 13.5868L11.7448 22.309C11.5556 22.2509 11.3588 22.2212 11.1609 22.2209C10.9907 22.2209 10.8234 22.2438 10.6617 22.2857L8.88567 13.1648ZM11.2202 14.1491L12.2838 14.5974L13.7213 22.0243C13.5493 21.9768 13.3718 21.9525 13.1934 21.9521C13.0907 21.9521 12.9892 21.9608 12.8893 21.9764L11.2203 14.1489L11.2202 14.1491ZM13.1933 23.1438C13.4347 23.1438 13.7094 23.2674 13.9103 23.5045C14.1112 23.7416 14.2499 24.1226 14.2493 24.4917C14.2493 24.4922 14.2493 24.4928 14.2493 24.4933C14.2499 24.8624 14.1112 25.2433 13.9104 25.4805C13.8202 25.5872 13.7101 25.6751 13.5861 25.7394L13.2022 25.8138C13.3338 25.4842 13.4012 25.1261 13.4008 24.7621V24.7605C13.4012 24.5266 13.373 24.2934 13.3169 24.0663C13.3185 24.0192 13.3144 23.972 13.3049 23.9258L13.1389 23.1472C13.157 23.1458 13.1754 23.1438 13.1933 23.1438ZM11.1609 23.4125C11.4024 23.4125 11.6772 23.5361 11.8781 23.7733C12.079 24.0105 12.2175 24.3914 12.217 24.7605C12.217 24.761 12.217 24.7615 12.217 24.7621C12.2175 25.1311 12.0789 25.5121 11.878 25.7493C11.6771 25.9864 11.4024 26.1101 11.1609 26.1101C10.9194 26.1101 10.6463 25.9864 10.4454 25.7493C10.2445 25.5121 10.1043 25.1311 10.1048 24.7621C10.1048 24.7615 10.1048 24.761 10.1048 24.7605C10.1043 24.3914 10.2445 24.0105 10.4454 23.7733C10.6463 23.5361 10.9194 23.4125 11.1609 23.4125H11.1609ZM9.00492 24.0744C8.9501 24.299 8.92257 24.5293 8.92292 24.7605V24.7621C8.92229 25.4102 9.13604 26.0394 9.54498 26.5221C9.59744 26.584 9.6526 26.6427 9.71048 26.6981L2.92392 28.8672L2.97279 25.3847L9.00492 24.0743V24.0744Z" fill="white"/>
</svg>
