<svg width="32" height="32" viewBox="0 0 32 32" fill="none" xmlns="http://www.w3.org/2000/svg">
<path d="M2.66675 10.8333C2.66675 9.72827 3.10573 8.66846 3.88714 7.88706C4.66854 7.10566 5.72835 6.66667 6.83342 6.66667H16.5001C17.6052 6.66667 18.665 7.10566 19.4464 7.88706C20.2278 8.66846 20.6667 9.72827 20.6667 10.8333V21.1667C20.6667 22.2717 20.2278 23.3315 19.4464 24.1129C18.665 24.8944 17.6052 25.3333 16.5001 25.3333H6.83342C5.72835 25.3333 4.66854 24.8944 3.88714 24.1129C3.10573 23.3315 2.66675 22.2717 2.66675 21.1667V10.8333ZM25.9381 23.612L22.0001 20.8927V11.106L25.9381 8.38734C27.3754 7.39534 29.3361 8.424 29.3361 10.1707V21.8287C29.3361 23.5753 27.3754 24.604 25.9381 23.612Z" fill="white"/>
</svg>
